<?xml version="1.0" encoding="UTF-8"?>
<!DOCTYPE svg PUBLIC "-//W3C//DTD SVG 1.1//EN" "http://www.w3.org/Graphics/SVG/1.1/DTD/svg11.dtd">
<svg xmlns="http://www.w3.org/2000/svg" version="1.1" width="2000px" height="2000px" style="shape-rendering:geometricPrecision; text-rendering:geometricPrecision; image-rendering:optimizeQuality; fill-rule:evenodd; clip-rule:evenodd" xmlns:xlink="http://www.w3.org/1999/xlink">
<g><path style="opacity:0.999" fill="#fefefe" d="M 1044.5,1999.5 C 1014.5,1999.5 984.5,1999.5 954.5,1999.5C 670.289,1981.97 434.122,1867.3 246,1655.5C 76.1352,1453.93 -3.86478,1220.6 6,955.5C 23.0981,685.183 129.598,457.683 325.5,273C 531.989,88.0371 774.656,1.03705 1053.5,12C 1300.54,28.0447 1513.21,120.711 1691.5,290C 1876.25,472.728 1976.75,694.562 1993,955.5C 2002.95,1236.08 1913.95,1479.41 1726,1685.5C 1540.47,1878.83 1313.3,1983.49 1044.5,1999.5 Z"/></g>
<g><path style="opacity:1" fill="#f39603" d="M 1346.5,626.5 C 1356.95,702.037 1355.45,777.371 1342,852.5C 1326.14,933.744 1300.47,1011.74 1265,1086.5C 1212.49,1194.24 1148.15,1293.9 1072,1385.5C 1048.93,1428.72 1037.77,1474.88 1038.5,1524C 1038.31,1559.18 1043.64,1593.35 1054.5,1626.5C 1048.38,1686.03 1044.05,1745.7 1041.5,1805.5C 1040.83,1808.5 1040.17,1811.5 1039.5,1814.5C 1031.03,1704.32 1025.69,1593.99 1023.5,1483.5C 1023.04,1401.62 1033.87,1321.29 1056,1242.5C 1065.95,1210.33 1075.28,1178 1084,1145.5C 1133.26,946.069 1115.93,752.736 1032,565.5C 1024.92,549.668 1017.09,534.335 1008.5,519.5C 989.494,482.796 967.494,448.129 942.5,415.5C 965.829,448.801 987.162,483.467 1006.5,519.5C 1108.68,719.975 1131.52,929.308 1075,1147.5C 1064.87,1182.22 1054.54,1216.88 1044,1251.5C 1021.92,1331.47 1011.09,1412.97 1011.5,1496C 1014.16,1627.68 1020.49,1759.18 1030.5,1890.5C 1027.83,1890.5 1025.17,1890.5 1022.5,1890.5C 1032.14,1750.99 995.31,1625.66 912,1514.5C 869.854,1462.69 828.854,1410.03 789,1356.5C 747.453,1300.11 711.453,1240.11 681,1176.5C 643.693,1096.6 622.693,1012.6 618,924.5C 611.362,864.946 623.028,809.279 653,757.5C 666.338,734.817 680.671,712.817 696,691.5C 718.719,661.782 741.052,631.782 763,601.5C 785.529,570.122 804.195,536.455 819,500.5C 843.34,435.015 842.007,370.015 815,305.5C 812.042,295.593 807.042,286.926 800,279.5C 771.279,238.436 768.946,195.769 793,151.5C 798.685,141.462 805.352,132.129 813,123.5C 801.975,148.561 807.475,169.394 829.5,186C 832.833,188.333 836.167,190.667 839.5,193C 922.678,231.236 1002.01,275.569 1077.5,326C 1147.38,372.769 1209.88,428.269 1265,492.5C 1298.84,532.896 1326,577.563 1346.5,626.5 Z"/></g>
<g><path style="opacity:1" fill="#ac7f1d" d="M 890.5,352.5 C 894.045,354.857 896.545,357.857 898,361.5C 894.888,358.899 892.388,355.899 890.5,352.5 Z"/></g>
<g><path style="opacity:1" fill="#977826" d="M 900.5,363.5 C 903.395,365.202 905.228,367.536 906,370.5C 903.546,368.559 901.713,366.225 900.5,363.5 Z"/></g>
<g><path style="opacity:1" fill="#81712c" d="M 908.5,372.5 C 910.757,373.562 911.923,375.228 912,377.5C 910.198,376.211 909.031,374.544 908.5,372.5 Z"/></g>
<g><path style="opacity:1" fill="#7a6e2f" d="M 914.5,379.5 C 916.446,380.254 917.279,381.588 917,383.5C 915.519,382.529 914.685,381.196 914.5,379.5 Z"/></g>
<g><path style="opacity:1" fill="#6a6834" d="M 922.5,389.5 C 920.554,388.746 919.721,387.412 920,385.5C 921.481,386.471 922.315,387.804 922.5,389.5 Z"/></g>
<g><path style="opacity:1" fill="#696737" d="M 922.5,389.5 C 924.587,390.585 925.92,392.251 926.5,394.5C 924.413,393.415 923.08,391.749 922.5,389.5 Z"/></g>
<g><path style="opacity:1" fill="#60633a" d="M 926.5,394.5 C 928.587,395.585 929.92,397.251 930.5,399.5C 928.413,398.415 927.08,396.749 926.5,394.5 Z"/></g>
<g><path style="opacity:1" fill="#54603d" d="M 930.5,399.5 C 932.262,400.262 933.262,401.596 933.5,403.5C 931.738,402.738 930.738,401.404 930.5,399.5 Z"/></g>
<g><path style="opacity:1" fill="#4d5d3f" d="M 933.5,403.5 C 935.262,404.262 936.262,405.596 936.5,407.5C 934.738,406.738 933.738,405.404 933.5,403.5 Z"/></g>
<g><path style="opacity:1" fill="#4d5d3f" d="M 936.5,407.5 C 938.262,408.262 939.262,409.596 939.5,411.5C 937.738,410.738 936.738,409.404 936.5,407.5 Z"/></g>
<g><path style="opacity:1" fill="#475b42" d="M 939.5,411.5 C 941.262,412.262 942.262,413.596 942.5,415.5C 940.738,414.738 939.738,413.404 939.5,411.5 Z"/></g>
<g><path style="opacity:1" fill="#30514c" d="M 942.5,415.5 C 967.494,448.129 989.494,482.796 1008.5,519.5C 1007.83,519.5 1007.17,519.5 1006.5,519.5C 987.162,483.467 965.829,448.801 942.5,415.5 Z"/></g>
<g><path style="opacity:1" fill="#114855" d="M 1006.5,519.5 C 1007.17,519.5 1007.83,519.5 1008.5,519.5C 1017.09,534.335 1024.92,549.668 1032,565.5C 1115.93,752.736 1133.26,946.069 1084,1145.5C 1075.28,1178 1065.95,1210.33 1056,1242.5C 1033.87,1321.29 1023.04,1401.62 1023.5,1483.5C 1025.69,1593.99 1031.03,1704.32 1039.5,1814.5C 1039.23,1816.1 1039.57,1817.43 1040.5,1818.5C 1039.56,1842.49 1038.9,1866.49 1038.5,1890.5C 1035.83,1890.5 1033.17,1890.5 1030.5,1890.5C 1020.49,1759.18 1014.16,1627.68 1011.5,1496C 1011.09,1412.97 1021.92,1331.47 1044,1251.5C 1054.54,1216.88 1064.87,1182.22 1075,1147.5C 1131.52,929.308 1108.68,719.975 1006.5,519.5 Z"/></g>
<g><path style="opacity:1" fill="#034657" d="M 1346.5,626.5 C 1377.13,698.441 1387.97,773.441 1379,851.5C 1373.16,901.873 1361.49,950.873 1344,998.5C 1316.58,1069.67 1282.58,1137.34 1242,1201.5C 1206.79,1256.71 1170.79,1311.38 1134,1365.5C 1120.99,1385.51 1108.99,1406.18 1098,1427.5C 1086.39,1455.59 1077.73,1484.59 1072,1514.5C 1064.85,1551.69 1059.02,1589.02 1054.5,1626.5C 1043.64,1593.35 1038.31,1559.18 1038.5,1524C 1037.77,1474.88 1048.93,1428.72 1072,1385.5C 1148.15,1293.9 1212.49,1194.24 1265,1086.5C 1300.47,1011.74 1326.14,933.744 1342,852.5C 1355.45,777.371 1356.95,702.037 1346.5,626.5 Z"/></g>
<g><path style="opacity:1" fill="#dfc38e" d="M 1041.5,1805.5 C 1041.71,1809.9 1041.37,1814.23 1040.5,1818.5C 1039.57,1817.43 1039.23,1816.1 1039.5,1814.5C 1040.17,1811.5 1040.83,1808.5 1041.5,1805.5 Z"/></g>
</svg>
